<svg width="24" height="24" viewBox="0 0 24 24" fill="none" xmlns="http://www.w3.org/2000/svg">
<path d="M12.606 3.74029C12.422 3.6325 12.2126 3.57568 11.9994 3.57568C11.7862 3.57568 11.5768 3.6325 11.3928 3.74029L4.18081 7.96429C4.00026 8.07041 3.85063 8.22192 3.74678 8.40378C3.64294 8.58564 3.58849 8.7915 3.58885 9.00092C3.58922 9.21034 3.64438 9.41602 3.74886 9.59752C3.85334 9.77901 4.0035 9.93001 4.18441 10.0355L11.3952 14.2379C11.5786 14.3448 11.7871 14.4011 11.9994 14.4011C12.2117 14.4011 12.4202 14.3448 12.6036 14.2379L19.8144 10.0355C19.9955 9.92987 20.1457 9.77867 20.2502 9.59693C20.3546 9.41519 20.4097 9.20926 20.4098 8.99964C20.4099 8.79002 20.3551 8.58402 20.2509 8.40216C20.1466 8.2203 19.9966 8.06892 19.8156 7.96309L12.606 3.74029ZM11.3928 5.13109C11.5767 5.02353 11.7858 4.96683 11.9988 4.96683C12.2118 4.96683 12.421 5.02353 12.6048 5.13109L19.2096 8.99869L12.6036 12.8495C12.4202 12.9564 12.2117 13.0127 11.9994 13.0127C11.7871 13.0127 11.5786 12.9564 11.3952 12.8495L4.78801 8.99869L11.3928 5.13109ZM3.68401 11.5799L11.4096 15.9275C11.5892 16.0284 11.7916 16.0814 11.9976 16.0814C12.2036 16.0814 12.4061 16.0284 12.5856 15.9275L20.3112 11.5799C20.4273 11.8492 20.4408 12.1518 20.349 12.4304C20.2573 12.7089 20.0667 12.9443 19.8132 13.0919L12.6012 17.2943C12.4179 17.401 12.2097 17.4571 11.9976 17.4571C11.7856 17.4571 11.5773 17.401 11.394 17.2943L4.18201 13.0919C3.92856 12.9443 3.73795 12.7089 3.6462 12.4304C3.55444 12.1518 3.56789 11.8492 3.68401 11.5799ZM3.68401 14.5235L11.4096 18.8699C11.5892 18.9708 11.7916 19.0238 11.9976 19.0238C12.2036 19.0238 12.4061 18.9708 12.5856 18.8699L20.3112 14.5235C20.4273 14.7928 20.4408 15.0954 20.349 15.374C20.2573 15.6525 20.0667 15.8879 19.8132 16.0355L12.6012 20.2379C12.4179 20.3446 12.2097 20.4007 11.9976 20.4007C11.7856 20.4007 11.5773 20.3446 11.394 20.2379L4.18201 16.0355C3.92856 15.8879 3.73795 15.6525 3.6462 15.374C3.55444 15.0954 3.56789 14.7928 3.68401 14.5235Z" fill="#2063E6"/>
</svg>
