<svg width="20" height="20" viewBox="0 0 20 20" fill="none" xmlns="http://www.w3.org/2000/svg">
<path d="M14.1667 14.1667C14.3226 14.1667 14.4754 14.2104 14.6077 14.2929C14.7399 14.3754 14.8464 14.4933 14.915 14.6333L14.955 14.7308C14.9967 14.8533 15.085 14.955 15.1984 15.0142L15.2692 15.045C15.4252 15.0982 15.5619 15.1965 15.662 15.3274C15.7622 15.4583 15.8212 15.616 15.8317 15.7805C15.8423 15.945 15.8038 16.1089 15.7212 16.2515C15.6385 16.3941 15.5155 16.509 15.3675 16.5817L15.2692 16.6217C15.1469 16.6631 15.0453 16.7503 14.9859 16.865L14.955 16.9358C14.9018 17.0918 14.8035 17.2285 14.6726 17.3287C14.5417 17.4288 14.384 17.4879 14.2195 17.4984C14.0551 17.5089 13.8911 17.4704 13.7485 17.3878C13.6059 17.3052 13.491 17.1821 13.4184 17.0342L13.3784 16.9358C13.3369 16.8135 13.2497 16.712 13.135 16.6525L13.0642 16.6217C12.9082 16.5684 12.7715 16.4702 12.6714 16.3393C12.5712 16.2083 12.5122 16.0507 12.5016 15.8862C12.4911 15.7217 12.5296 15.5578 12.6122 15.4152C12.6949 15.2726 12.8179 15.1577 12.9659 15.085L13.0642 15.045C13.1865 15.0035 13.2881 14.9163 13.3475 14.8017L13.4309 14.61C13.5017 14.4762 13.6076 14.3643 13.7372 14.2862C13.8669 14.2081 14.0153 14.1668 14.1667 14.1667ZM16.8984 2.5125L17.4875 3.10167C17.7197 3.33382 17.9039 3.60944 18.0296 3.91278C18.1552 4.21612 18.2199 4.54124 18.2199 4.86958C18.2199 5.19792 18.1552 5.52305 18.0296 5.82639C17.9039 6.12973 17.7197 6.40535 17.4875 6.6375L8.06002 16.065C7.94949 16.1758 7.81 16.2532 7.65753 16.2883L3.82752 17.1717C3.68978 17.2036 3.54619 17.1999 3.41027 17.161C3.27434 17.1221 3.15054 17.0492 3.05052 16.9493C2.95051 16.8494 2.87756 16.7256 2.83855 16.5898C2.79954 16.4539 2.79574 16.3103 2.82752 16.1725L3.71169 12.3417C3.74701 12.1895 3.8244 12.0503 3.93502 11.94L13.3625 2.5125C13.5947 2.28031 13.8703 2.09612 14.1736 1.97046C14.477 1.8448 14.8021 1.78012 15.1304 1.78012C15.4588 1.78012 15.7839 1.8448 16.0872 1.97046C16.3906 2.09612 16.6662 2.28031 16.8984 2.5125ZM12.7734 5.45833L5.28169 12.9483L4.75169 15.2475L7.05002 14.7175L14.5417 7.22583L12.7734 5.45833ZM5.00002 0C5.17385 6.9356e-05 5.34331 0.0544952 5.48467 0.155658C5.62603 0.256821 5.73221 0.399656 5.78836 0.564167L5.89669 0.879167C6.14669 1.61167 6.72169 2.1875 7.45502 2.4375L7.76919 2.545C7.93352 2.60131 8.07614 2.70757 8.17712 2.84891C8.2781 2.99026 8.33239 3.15962 8.33239 3.33333C8.33239 3.50704 8.2781 3.67641 8.17712 3.81775C8.07614 3.9591 7.93352 4.06536 7.76919 4.12167L7.45419 4.23C6.72169 4.48 6.14586 5.055 5.89586 5.78833L5.78836 6.1025C5.73205 6.26683 5.62579 6.40945 5.48445 6.51043C5.3431 6.61141 5.17373 6.66569 5.00002 6.66569C4.82632 6.66569 4.65695 6.61141 4.5156 6.51043C4.37426 6.40945 4.268 6.26683 4.21169 6.1025L4.10336 5.7875C3.97994 5.42595 3.77531 5.09749 3.50517 4.82736C3.23503 4.55722 2.90657 4.35258 2.54502 4.22917L2.23086 4.12167C2.06653 4.06536 1.9239 3.9591 1.82293 3.81775C1.72195 3.67641 1.66766 3.50704 1.66766 3.33333C1.66766 3.15962 1.72195 2.99026 1.82293 2.84891C1.9239 2.70757 2.06653 2.60131 2.23086 2.545L2.54586 2.43667C3.27836 2.18667 3.85419 1.61167 4.10419 0.878333L4.21169 0.564167C4.35169 0.2375 4.62669 0 5.00002 0ZM14.5417 3.69083L13.9517 4.27917L15.7192 6.0475L16.3092 5.45833C16.4654 5.30206 16.5532 5.09014 16.5532 4.86917C16.5532 4.6482 16.4654 4.43627 16.3092 4.28L15.72 3.69083C15.6426 3.61335 15.5507 3.55189 15.4496 3.50995C15.3484 3.46801 15.24 3.44643 15.1304 3.44643C15.0209 3.44643 14.9125 3.46801 14.8113 3.50995C14.7102 3.55189 14.6183 3.61335 14.5409 3.69083M5.00002 2.66333C4.80289 2.91142 4.57811 3.1362 4.33002 3.33333C4.57947 3.53056 4.8028 3.75361 5.00002 4.0025C5.1978 3.75417 5.42086 3.53111 5.66919 3.33333C5.4214 3.13615 5.1969 2.91137 5.00002 2.66333Z" fill="#1B8BE6"/>
</svg>
