<svg width="24" height="24" viewBox="0 0 24 24" fill="none" xmlns="http://www.w3.org/2000/svg">
<path d="M9.068 3.22798C7.69353 3.07586 6.30647 3.07586 4.932 3.22798C4.50305 3.27573 4.10278 3.46692 3.79605 3.77057C3.48932 4.07421 3.29409 4.47253 3.242 4.90098C3.07827 6.29552 3.07827 7.70443 3.242 9.09898C3.29409 9.52743 3.48932 9.92574 3.79605 10.2294C4.10278 10.533 4.50305 10.7242 4.932 10.772C6.295 10.924 7.705 10.924 9.068 10.772C9.49696 10.7242 9.89723 10.533 10.204 10.2294C10.5107 9.92574 10.7059 9.52743 10.758 9.09898C10.9217 7.70443 10.9217 6.29552 10.758 4.90098C10.7059 4.47253 10.5107 4.07421 10.204 3.77057C9.89723 3.46692 9.49696 3.27573 9.068 3.22798ZM9.068 13.228C7.69353 13.0759 6.30647 13.0759 4.932 13.228C4.50305 13.2757 4.10278 13.4669 3.79605 13.7706C3.48932 14.0742 3.29409 14.4725 3.242 14.901C3.07827 16.2955 3.07827 17.7044 3.242 19.099C3.29409 19.5274 3.48932 19.9257 3.79605 20.2294C4.10278 20.533 4.50305 20.7242 4.932 20.772C6.295 20.924 7.705 20.924 9.068 20.772C9.49696 20.7242 9.89723 20.533 10.204 20.2294C10.5107 19.9257 10.7059 19.5274 10.758 19.099C10.9217 17.7044 10.9217 16.2955 10.758 14.901C10.7059 14.4725 10.5107 14.0742 10.204 13.7706C9.89723 13.4669 9.49696 13.2757 9.068 13.228ZM19.068 3.22798C17.6935 3.07586 16.3065 3.07586 14.932 3.22798C14.503 3.27573 14.1028 3.46692 13.796 3.77057C13.4893 4.07421 13.2941 4.47253 13.242 4.90098C13.0783 6.29552 13.0783 7.70443 13.242 9.09898C13.2941 9.52743 13.4893 9.92574 13.796 10.2294C14.1028 10.533 14.503 10.7242 14.932 10.772C16.296 10.924 17.704 10.924 19.068 10.772C19.497 10.7242 19.8972 10.533 20.204 10.2294C20.5107 9.92574 20.7059 9.52743 20.758 9.09898C20.9217 7.70443 20.9217 6.29552 20.758 4.90098C20.7059 4.47253 20.5107 4.07421 20.204 3.77057C19.8972 3.46692 19.497 3.27573 19.068 3.22798ZM19.068 13.228C17.6935 13.0759 16.3065 13.0759 14.932 13.228C14.503 13.2757 14.1028 13.4669 13.796 13.7706C13.4893 14.0742 13.2941 14.4725 13.242 14.901C13.0783 16.2955 13.0783 17.7044 13.242 19.099C13.2941 19.5274 13.4893 19.9257 13.796 20.2294C14.1028 20.533 14.503 20.7242 14.932 20.772C16.296 20.924 17.704 20.924 19.068 20.772C19.497 20.7242 19.8972 20.533 20.204 20.2294C20.5107 19.9257 20.7059 19.5274 20.758 19.099C20.9217 17.7044 20.9217 16.2955 20.758 14.901C20.7059 14.4725 20.5107 14.0742 20.204 13.7706C19.8972 13.4669 19.497 13.2757 19.068 13.228Z" fill="#2063E6"/>
</svg>
