<svg width="24" height="24" viewBox="0 0 24 24" fill="none" xmlns="http://www.w3.org/2000/svg">
<path d="M4.75 4C4.75 3.80109 4.67098 3.61032 4.53033 3.46967C4.38968 3.32902 4.19891 3.25 4 3.25C3.80109 3.25 3.61032 3.32902 3.46967 3.46967C3.32902 3.61032 3.25 3.80109 3.25 4V18.5C3.25 19.0967 3.48705 19.669 3.90901 20.091C4.33097 20.5129 4.90326 20.75 5.5 20.75H20C20.1989 20.75 20.3897 20.671 20.5303 20.5303C20.671 20.3897 20.75 20.1989 20.75 20C20.75 19.8011 20.671 19.6103 20.5303 19.4697C20.3897 19.329 20.1989 19.25 20 19.25H5.5C5.30109 19.25 5.11032 19.171 4.96967 19.0303C4.82902 18.8897 4.75 18.6989 4.75 18.5V15.73L9.2 11.28L12.622 14.703C12.7626 14.8435 12.9532 14.9223 13.152 14.9223C13.3508 14.9223 13.5414 14.8435 13.682 14.703L17.997 10.388V12.117C17.997 12.3159 18.076 12.5067 18.2167 12.6473C18.3573 12.788 18.5481 12.867 18.747 12.867C18.9459 12.867 19.1367 12.788 19.2773 12.6473C19.418 12.5067 19.497 12.3159 19.497 12.117V8.58C19.497 8.38109 19.418 8.19032 19.2773 8.04967C19.1367 7.90902 18.9459 7.83 18.747 7.83H15.211C15.0121 7.83 14.8213 7.90902 14.6807 8.04967C14.54 8.19032 14.461 8.38109 14.461 8.58C14.461 8.77891 14.54 8.96968 14.6807 9.11033C14.8213 9.25098 15.0121 9.33 15.211 9.33H16.933L13.153 13.11L9.73 9.69C9.58937 9.54955 9.39875 9.47066 9.2 9.47066C9.00125 9.47066 8.81063 9.54955 8.67 9.69L4.75 13.61V4Z" fill="#F35F0F"/>
</svg>
